<svg width="88" height="67" viewBox="0 0 88 67" fill="none" xmlns="http://www.w3.org/2000/svg">
<path d="M83.6996 25.054C81.2278 43.709 54.3318 51.7719 40.0357 38.3754C19.2591 19.8358 33.8623 1.91955 43.9097 14.491C54.5596 22.2038 51.8094 -2.49575 71.1262 4.67263C81.596 9.54282 84.7411 17.1934 83.6996 25.054Z" fill="#DFFEE5"/>
<rect x="15.7295" y="19.1436" width="54.1973" height="39.8872" rx="5.08598" fill="#68D787" stroke="black" stroke-width="1.45314"/>
<path d="M22.9531 30.4624H42.0333" stroke="black" stroke-width="1.45314" stroke-linecap="round"/>
<path d="M22.9531 36.0273H42.0333" stroke="black" stroke-width="1.45314" stroke-linecap="round"/>
<path d="M50.7793 51.081V40.8027C50.7793 40.4015 51.1046 40.0762 51.5059 40.0762H58.7978C59.1991 40.0762 59.5244 40.4015 59.5244 40.8027V51.876C59.5244 52.5233 58.7417 52.8474 58.284 52.3897L55.2681 49.3738C54.9843 49.09 54.5243 49.09 54.2406 49.3738L52.0196 51.5947C51.5619 52.0524 50.7793 51.7283 50.7793 51.081Z" stroke="black" stroke-width="1.45314"/>
<path d="M22.9531 41.939H42.0333" stroke="black" stroke-width="1.45314" stroke-linecap="round"/>
<path d="M22.9531 47.7131H42.033" stroke="black" stroke-width="1.45314" stroke-linecap="round"/>
<circle cx="55.5517" cy="33.5222" r="8.01849" fill="#FECB04" stroke="black" stroke-width="1.45314"/>
<path d="M68.9776 16.6032C69.3593 16.6032 69.67 16.3432 69.67 16.0189L69.7038 8.31064C69.7038 7.98637 69.3964 7.7229 69.0147 7.7229H69.0114C68.6297 7.7229 68.3189 7.98299 68.3189 8.30726L68.2852 16.0155C68.2852 16.3398 68.5926 16.6032 68.9776 16.6032Z" fill="black"/>
<path d="M72.9981 12.8878C73.3798 12.8878 73.6872 12.5939 73.6905 12.2257C73.6939 11.8609 73.3832 11.5603 73.0015 11.5603L64.9858 11.5164H64.9825C64.6008 11.5164 64.2934 11.8102 64.2901 12.1784C64.2867 12.5432 64.5975 12.8439 64.9792 12.8439L72.9948 12.8878C72.9948 12.8878 72.9948 12.8878 72.9981 12.8878Z" fill="black"/>
<path d="M73.6924 22.5818C73.6924 21.1868 74.8746 20.0552 76.3304 20.0552C77.7829 20.0552 78.9651 21.1901 78.9651 22.5818C78.9651 23.9735 77.7829 25.1084 76.3304 25.1084C74.8746 25.1084 73.6924 23.9769 73.6924 22.5818ZM75.0772 22.5818C75.0772 23.2439 75.638 23.7809 76.3304 23.7809C77.0195 23.7809 77.5836 23.2439 77.5836 22.5818C77.5836 21.9198 77.0229 21.3827 76.3304 21.3827C75.638 21.3827 75.0772 21.9198 75.0772 22.5818Z" fill="#FF693D"/>
<path d="M15.3577 62.6906C15.4254 63.131 15.1222 63.5482 14.6772 63.5695C11.7213 63.711 9.75434 62.0017 8.93567 60.3857C8.77407 60.0637 8.64679 59.7373 8.55657 59.4095C6.72458 58.7718 5.15038 57.2528 4.58119 55.4982C4.04924 53.859 4.38681 52.1554 5.53068 50.629C5.79736 50.2731 6.31153 50.2564 6.63762 50.5587C6.96333 50.8608 6.97587 51.3658 6.71979 51.7288C5.96824 52.794 5.75715 53.9124 6.11118 55.0003C6.4532 56.0548 7.3393 57.0215 8.40533 57.5907C8.51427 56.6555 8.91984 55.7797 9.60875 55.091C10.3444 54.3699 11.956 53.5165 13.158 54.2559C13.7394 54.6163 14.1406 55.2319 14.2534 55.9448C14.3822 56.7637 14.1202 57.6049 13.513 58.3166C12.7392 59.2213 11.645 59.7098 10.4063 59.7234C11.0047 60.8412 12.3733 61.9901 14.4313 61.9616C14.8769 61.9554 15.29 62.2502 15.3577 62.6906ZM9.98028 58.0993C10.638 58.1694 11.5914 58.0968 12.2879 57.2803C12.6689 56.8335 12.7004 56.4475 12.6641 56.2014C12.625 55.9523 12.4935 55.7396 12.3154 55.6305C12.0621 55.4758 11.2496 55.7415 10.7414 56.2406C10.1885 56.792 9.9788 57.4531 9.98028 58.0993Z" fill="#68D787"/>
</svg>
