<svg width="73" height="73" viewBox="0 0 73 73" fill="none" xmlns="http://www.w3.org/2000/svg">
<path d="M14.0612 20.3497C28.5968 8.79184 56.3507 21.6534 59.2731 41.0647C64.1421 68.6141 42.8747 69.0682 40.0733 55.372C36.3797 42.5238 17.942 58.1704 9.59022 43.6931C4.4782 34.8317 7.93654 25.2198 14.0612 20.3497Z" fill="#FFF0CB"/>
<path d="M49.2311 58.6945C49.5954 59.2714 49.8424 60.0805 49.9459 61.4225L23.3485 61.4224C23.447 60.0502 23.6757 59.2319 24.018 58.6554C24.4114 57.9928 25.0113 57.5512 26.0668 56.9688C26.3529 56.8108 26.6638 56.6469 27.0005 56.4694C29.092 55.3667 32.1774 53.7399 36.497 49.7729C40.8035 53.7088 43.9481 55.3424 46.1088 56.4649C46.447 56.6406 46.7612 56.8038 47.0518 56.9614C48.1554 57.5594 48.8044 58.0188 49.2311 58.6945Z" fill="#FFD83E" stroke="black" stroke-width="1.51347"/>
<path d="M15.9226 8.52868C15.8975 8.03572 15.8799 7.6249 15.8679 7.30678H57.7008C57.6858 7.62709 57.6646 8.04056 57.635 8.53652C57.5584 9.82042 57.426 11.6564 57.2031 13.8598C56.7568 18.2695 55.949 24.1369 54.5043 29.9904C53.0567 35.8553 50.9833 41.6478 48.0348 45.9466C45.0939 50.2344 41.3528 52.946 36.5435 52.9051C31.7517 52.8643 28.0478 50.1093 25.1558 45.8048C22.2566 41.4898 20.2425 35.7079 18.8523 29.8652C17.4648 24.0337 16.7118 18.1991 16.3061 13.8169C16.1033 11.6273 15.9876 9.80366 15.9226 8.52868Z" fill="#FFD83E" stroke="black" stroke-width="1.51347"/>
<path d="M52.7441 35.91C55.8763 26.6615 57.4005 10.7866 57.4005 10.7866L67.6932 10.7866C70.3548 10.7866 72.4723 13.0863 71.9821 15.7024C68.4617 34.4926 55.5587 35.91 52.7441 35.91Z" fill="#FFD83E" stroke="black" stroke-width="1.51347"/>
<path d="M53.9502 31.7665C55.7886 25.421 57.0466 14.9438 57.0466 14.9438L65.7637 14.9439C66.6505 14.9439 67.3507 15.7085 67.2336 16.5875C65.3504 30.7239 55.8964 31.7665 53.9502 31.7665Z" fill="white" stroke="black" stroke-width="1.51347"/>
<path d="M20.5508 35.91C17.1579 25.522 16.0989 10.8413 16.0989 10.8413C16.0989 10.8413 11.3102 10.808 5.60157 10.7934C2.93996 10.7866 0.822655 13.0863 1.31279 15.7024C4.83321 34.4926 17.7362 35.91 20.5508 35.91Z" fill="#FFD83E" stroke="black" stroke-width="1.51347"/>
<path d="M19.416 31.7665C17.5776 25.421 16.3196 14.9438 16.3196 14.9438L7.60247 14.9439C6.71568 14.9439 6.01551 15.7085 6.13261 16.5875C8.01583 30.7239 17.4698 31.7665 19.416 31.7665Z" fill="white" stroke="black" stroke-width="1.51347"/>
<path d="M60.7499 47.9127C61.1665 47.9127 61.5056 47.6339 61.5056 47.2864L61.5425 39.0249C61.5425 38.6774 61.207 38.395 60.7904 38.395H60.7867C60.3701 38.395 60.031 38.6738 60.031 39.0213L59.9941 47.2828C59.9941 47.6303 60.3296 47.9127 60.7499 47.9127Z" fill="black"/>
<path d="M65.1361 43.8885C65.5527 43.8885 65.8881 43.5736 65.8918 43.179C65.8955 42.788 65.5564 42.4658 65.1398 42.4658L56.3913 42.4187H56.3876C55.971 42.4187 55.6356 42.7337 55.6319 43.1283C55.6282 43.5193 55.9674 43.8415 56.384 43.8415L65.1324 43.8885C65.1324 43.8885 65.1324 43.8885 65.1361 43.8885Z" fill="black"/>
<path d="M51.084 52.4721C51.084 50.977 52.3742 49.7642 53.9632 49.7642C55.5485 49.7642 56.8388 50.9806 56.8388 52.4721C56.8388 53.9637 55.5485 55.1801 53.9632 55.1801C52.3742 55.1801 51.084 53.9673 51.084 52.4721ZM52.5955 52.4721C52.5955 53.1817 53.2074 53.7573 53.9632 53.7573C54.7153 53.7573 55.3309 53.1817 55.3309 52.4721C55.3309 51.7626 54.719 51.1869 53.9632 51.1869C53.2074 51.1869 52.5955 51.7626 52.5955 52.4721Z" fill="#FF693D"/>
<path d="M22.8669 53.6154C22.9501 54.0891 22.623 54.5473 22.1336 54.5786C18.9081 54.7855 16.7254 52.99 15.7984 51.2721C15.6152 50.9295 15.4695 50.5815 15.3643 50.2312C13.348 49.5824 11.596 47.9822 10.9383 46.1091C10.3243 44.3611 10.6579 42.5271 11.875 40.8668C12.1612 40.4762 12.7259 40.4461 13.0888 40.7646C13.4508 41.0824 13.4727 41.6257 13.1986 42.0231C12.4004 43.1806 12.193 44.3843 12.6015 45.5442C12.9967 46.67 13.9851 47.6907 15.1624 48.281C15.2628 47.2745 15.6887 46.326 16.4283 45.5728C17.2184 44.7839 18.9637 43.8356 20.2931 44.606C20.9362 44.9816 21.3872 45.6348 21.5249 46.3982C21.6822 47.2751 21.4125 48.1837 20.7627 48.9599C19.9346 49.9467 18.7478 50.4929 17.3935 50.5318C18.0707 51.7212 19.5918 52.9288 21.844 52.8561C22.3297 52.8404 22.7845 53.1459 22.8669 53.6154ZM16.895 48.7961C17.6157 48.8584 18.6568 48.7617 19.4022 47.8712C19.8099 47.3838 19.8366 46.9687 19.7919 46.7051C19.7442 46.4383 19.5961 46.2125 19.3991 46.0988C19.1191 45.9378 18.2358 46.2391 17.69 46.785C17.0964 47.3881 16.8804 48.1022 16.895 48.7961Z" fill="#68D787"/>
</svg>
