<svg width="80" height="80" viewBox="0 0 80 80" fill="none" xmlns="http://www.w3.org/2000/svg">
<g opacity="0.2" filter="url(#filter0_b_280_27666)">
<path d="M72.6676 60.3572C72.6676 66.84 67.4123 72.0953 60.9295 72.0953C54.4467 72.0953 49.1914 66.84 49.1914 60.3572C49.1914 53.8745 54.4467 48.6191 60.9295 48.6191C67.4123 48.6191 72.6676 53.8745 72.6676 60.3572Z" fill="#2CE6A4"/>
<path d="M61.6187 32.0476C61.6187 38.1491 56.6725 43.0952 50.5711 43.0952C44.4696 43.0952 39.5234 38.1491 39.5234 32.0476C39.5234 25.9462 44.4696 21 50.5711 21C56.6725 21 61.6187 25.9462 61.6187 32.0476Z" fill="#FFDA49"/>
<circle cx="25.0238" cy="58.9764" r="20.0238" fill="#8244FD"/>
</g>
<path d="M58.257 70H20.519L17.5 64L23.5381 54L31.0857 56L47.5 51.25C47.5 51.25 56.7474 62 58.257 64C59.7665 66 61.276 70 58.257 70Z" fill="#C1A1FF"/>
<path d="M25 53.4681C26.9298 54.6241 32.2368 56.2425 38.0263 53.4681C45.2632 50 49.6053 50 52.5 50" stroke="#01202B" stroke-width="2.5" stroke-linecap="round" stroke-linejoin="round"/>
<path d="M40 22.5H46.3017C47.0173 22.5 47.6526 22.9579 47.8789 23.6368L47.945 23.8349C48.4604 25.3813 48.3405 27.0691 47.6115 28.527V28.527C47.5377 28.6747 47.4405 28.8095 47.3237 28.9263L45.7322 30.5178C45.2634 30.9866 45 31.6225 45 32.2855V39.0547C45 39.6639 45.2224 40.252 45.6254 40.7088L61.913 59.168C63.0968 60.5097 63.75 62.2373 63.75 64.0266V64.6215C63.75 65.6834 63.4357 66.7215 62.8467 67.605V67.605C61.8492 69.1013 60.1698 70 58.3715 70H40" stroke="#01202B" stroke-width="2"/>
<path d="M41.25 22.5H34.9483C34.2327 22.5 33.5974 22.9579 33.3711 23.6368L33.305 23.8349C32.7896 25.3813 32.9095 27.0691 33.6385 28.527V28.527C33.7123 28.6747 33.8095 28.8095 33.9263 28.9263L35.5178 30.5178C35.9866 30.9866 36.25 31.6225 36.25 32.2855V39.0547C36.25 39.6639 36.0276 40.252 35.6246 40.7088L19.337 59.168C18.1532 60.5097 17.5 62.2373 17.5 64.0266V64.6215C17.5 65.6834 17.8143 66.7215 18.4033 67.605V67.605C19.4008 69.1013 21.0802 70 22.8785 70H41.25" stroke="#01202B" stroke-width="2"/>
<path d="M37.3202 6.66748C35.0743 11.1592 39.5661 8.91336 37.3202 13.4051" stroke="#01202B" stroke-width="2" stroke-linecap="round" stroke-linejoin="round"/>
<path d="M43.9765 3.33398C41.7306 7.82574 46.2223 5.57986 43.9765 10.0716" stroke="#01202B" stroke-width="2" stroke-linecap="round" stroke-linejoin="round"/>
<defs>
<filter id="filter0_b_280_27666" x="-38" y="-22" width="153.668" height="144" filterUnits="userSpaceOnUse" color-interpolation-filters="sRGB">
<feFlood flood-opacity="0" result="BackgroundImageFix"/>
<feGaussianBlur in="BackgroundImage" stdDeviation="21.5"/>
<feComposite in2="SourceAlpha" operator="in" result="effect1_backgroundBlur_280_27666"/>
<feBlend mode="normal" in="SourceGraphic" in2="effect1_backgroundBlur_280_27666" result="shape"/>
</filter>
</defs>
</svg>
